<?xml version="1.0" encoding="UTF-8" standalone="no"?>
<!DOCTYPE svg PUBLIC "-//W3C//DTD SVG 1.1//EN"
 "http://www.w3.org/Graphics/SVG/1.1/DTD/svg11.dtd">
<!-- Generated by graphviz version 2.43.0 (0)
 -->
<!-- Title: AccountStructure Pages: 1 -->
<svg width="292pt" height="303pt"
 viewBox="0.00 0.00 292.00 303.00" xmlns="http://www.w3.org/2000/svg" xmlns:xlink="http://www.w3.org/1999/xlink">
<g id="graph0" class="graph" transform="scale(1 1) rotate(0) translate(4 299)">
<title>AccountStructure</title>
<polygon fill="white" stroke="transparent" points="-4,4 -4,-299 288,-299 288,4 -4,4"/>
<text text-anchor="middle" x="142" y="-279.8" font-family="Times,serif" font-size="14.00">CNCF AWS project account structure</text>
<g id="clust1" class="cluster">
<title>cluster0</title>
<polygon fill="none" stroke="black" points="22,-8 22,-264 262,-264 262,-8 22,-8"/>
<text text-anchor="middle" x="142" y="-248.8" font-family="Times,serif" font-size="14.00">CNCF root Org</text>
</g>
<g id="clust2" class="cluster">
<title>cluster0_0</title>
<polygon fill="none" stroke="black" points="30,-16 30,-233 254,-233 254,-16 30,-16"/>
<text text-anchor="middle" x="142" y="-217.8" font-family="Times,serif" font-size="14.00">[PROJECT] Org Unit</text>
</g>
<g id="clust3" class="cluster">
<title>cluster0_0_0</title>
<polygon fill="none" stroke="black" points="38,-24 38,-202 246,-202 246,-24 38,-24"/>
<text text-anchor="middle" x="142" y="-186.8" font-family="Times,serif" font-size="14.00">[PROJECT] Account</text>
</g>
<g id="clust4" class="cluster">
<title>cluster0_0_0_0</title>
<polygon fill="none" stroke="black" points="62,-96 62,-171 222,-171 222,-96 62,-96"/>
<text text-anchor="middle" x="142" y="-155.8" font-family="Times,serif" font-size="14.00">IAM users and roles</text>
</g>
<!-- IAMUser -->
<g id="node1" class="node">
<title>IAMUser</title>
<ellipse fill="none" stroke="black" stroke-dasharray="5,2" cx="142" cy="-122" rx="55.49" ry="18"/>
<text text-anchor="middle" x="142" y="-118.3" font-family="Times,serif" font-size="14.00">IAM User</text>
</g>
<!-- Resources -->
<g id="node2" class="node">
<title>Resources</title>
<ellipse fill="none" stroke="black" stroke-dasharray="5,2" cx="142" cy="-50" rx="96.38" ry="18"/>
<text text-anchor="middle" x="142" y="-46.3" font-family="Times,serif" font-size="14.00">Account resources</text>
</g>
<!-- IAMUser&#45;&gt;Resources -->
<g id="edge1" class="edge">
<title>IAMUser&#45;&gt;Resources</title>
<path fill="none" stroke="black" d="M142,-103.7C142,-95.98 142,-86.71 142,-78.11"/>
<polygon fill="black" stroke="black" points="145.5,-78.1 142,-68.1 138.5,-78.1 145.5,-78.1"/>
</g>
</g>
</svg>
